<svg width="599" height="406" viewBox="0 0 599 406" fill="none" xmlns="http://www.w3.org/2000/svg">
    <g filter="url(#filter0_d_614_469)">
    <path d="M561.23 7H37C23.1929 7 12 18.1929 12 32V363.865C12 377.672 23.1929 388.865 37 388.865H561.23C575.037 388.865 586.23 377.672 586.23 363.865V32C586.23 18.1929 575.037 7 561.23 7Z" fill="url(#paint0_linear_614_469)"/>
    <path opacity="0.1" d="M530.493 21.303H69.0298C66.2684 21.303 64.0298 23.5416 64.0298 26.303V370.059C64.0298 372.82 66.2684 375.059 69.0298 375.059H530.493C533.254 375.059 535.493 372.82 535.493 370.059V26.303C535.493 23.5416 533.254 21.303 530.493 21.303Z" fill="#2A2A2A"/>
    <path d="M559.03 24.303H39.0298C34.6115 24.303 31.0298 27.8847 31.0298 32.303V362.303C31.0298 366.721 34.6115 370.303 39.0298 370.303H559.03C563.448 370.303 567.03 366.721 567.03 362.303V32.303C567.03 27.8847 563.448 24.303 559.03 24.303Z" fill="#E8EAF6"/>
    <mask id="mask0_614_469" style="mask-type:luminance" maskUnits="userSpaceOnUse" x="31" y="24" width="537" height="347">
    <path d="M559.03 24.303H39.0298C34.6115 24.303 31.0298 27.8847 31.0298 32.303V362.303C31.0298 366.721 34.6115 370.303 39.0298 370.303H559.03C563.448 370.303 567.03 366.721 567.03 362.303V32.303C567.03 27.8847 563.448 24.303 559.03 24.303Z" fill="white"/>
    </mask>
    <g mask="url(#mask0_614_469)">
    <path fill-rule="evenodd" clip-rule="evenodd" d="M27.5 24.5H574.5V83.5H27.5V24.5Z" fill="#5267DF"/>
    <path opacity="0.245" d="M69.5 70.5C78.3366 70.5 85.5 63.3366 85.5 54.5C85.5 45.6634 78.3366 38.5 69.5 38.5C60.6634 38.5 53.5 45.6634 53.5 54.5C53.5 63.3366 60.6634 70.5 69.5 70.5Z" fill="white"/>
    <path opacity="0.104" d="M530.5 70.5C539.337 70.5 546.5 63.3366 546.5 54.5C546.5 45.6634 539.337 38.5 530.5 38.5C521.663 38.5 514.5 45.6634 514.5 54.5C514.5 63.3366 521.663 70.5 530.5 70.5Z" fill="white"/>
    <path opacity="0.75" d="M217.5 44.5H103.5C101.843 44.5 100.5 45.8431 100.5 47.5C100.5 49.1569 101.843 50.5 103.5 50.5H217.5C219.157 50.5 220.5 49.1569 220.5 47.5C220.5 45.8431 219.157 44.5 217.5 44.5Z" fill="white"/>
    <path opacity="0.25" d="M161.5 58.5H103.5C101.843 58.5 100.5 59.8431 100.5 61.5C100.5 63.1569 101.843 64.5 103.5 64.5H161.5C163.157 64.5 164.5 63.1569 164.5 61.5C164.5 59.8431 163.157 58.5 161.5 58.5Z" fill="white"/>
    </g>
    <mask id="mask1_614_469" style="mask-type:luminance" maskUnits="userSpaceOnUse" x="31" y="24" width="537" height="347">
    <path d="M559.03 24.303H39.0298C34.6115 24.303 31.0298 27.8847 31.0298 32.303V362.303C31.0298 366.721 34.6115 370.303 39.0298 370.303H559.03C563.448 370.303 567.03 366.721 567.03 362.303V32.303C567.03 27.8847 563.448 24.303 559.03 24.303Z" fill="white"/>
    </mask>
    <g mask="url(#mask1_614_469)">
    <path d="M341.03 117.303H96.0298C91.6115 117.303 88.0298 120.885 88.0298 125.303V425.303C88.0298 429.721 91.6115 433.303 96.0298 433.303H341.03C345.448 433.303 349.03 429.721 349.03 425.303V125.303C349.03 120.885 345.448 117.303 341.03 117.303Z" fill="white"/>
    <path d="M503.03 117.303H391.03C386.612 117.303 383.03 120.885 383.03 125.303V425.303C383.03 429.721 386.612 433.303 391.03 433.303H503.03C507.448 433.303 511.03 429.721 511.03 425.303V125.303C511.03 120.885 507.448 117.303 503.03 117.303Z" fill="white"/>
    <path opacity="0.5" d="M283.5 155.5H169.5C167.843 155.5 166.5 156.843 166.5 158.5C166.5 160.157 167.843 161.5 169.5 161.5H283.5C285.157 161.5 286.5 160.157 286.5 158.5C286.5 156.843 285.157 155.5 283.5 155.5Z" fill="#242A45"/>
    </g>
    <path d="M135.5 181.5C144.337 181.5 151.5 174.337 151.5 165.5C151.5 156.663 144.337 149.5 135.5 149.5C126.663 149.5 119.5 156.663 119.5 165.5C119.5 174.337 126.663 181.5 135.5 181.5Z" fill="#F98E5D"/>
    <path opacity="0.25" d="M488.5 139.5H406.5C404.843 139.5 403.5 140.843 403.5 142.5C403.5 144.157 404.843 145.5 406.5 145.5H488.5C490.157 145.5 491.5 144.157 491.5 142.5C491.5 140.843 490.157 139.5 488.5 139.5Z" fill="#242A45"/>
    <path opacity="0.25" d="M488.5 159.5H406.5C404.843 159.5 403.5 160.843 403.5 162.5C403.5 164.157 404.843 165.5 406.5 165.5H488.5C490.157 165.5 491.5 164.157 491.5 162.5C491.5 160.843 490.157 159.5 488.5 159.5Z" fill="#242A45"/>
    <path opacity="0.25" d="M488.5 179.5H406.5C404.843 179.5 403.5 180.843 403.5 182.5C403.5 184.157 404.843 185.5 406.5 185.5H488.5C490.157 185.5 491.5 184.157 491.5 182.5C491.5 180.843 490.157 179.5 488.5 179.5Z" fill="#242A45"/>
    <path opacity="0.25" d="M488.5 199.5H406.5C404.843 199.5 403.5 200.843 403.5 202.5C403.5 204.157 404.843 205.5 406.5 205.5H488.5C490.157 205.5 491.5 204.157 491.5 202.5C491.5 200.843 490.157 199.5 488.5 199.5Z" fill="#242A45"/>
    <path opacity="0.25" d="M488.5 233.5H406.5C404.843 233.5 403.5 234.843 403.5 236.5C403.5 238.157 404.843 239.5 406.5 239.5H488.5C490.157 239.5 491.5 238.157 491.5 236.5C491.5 234.843 490.157 233.5 488.5 233.5Z" fill="#242A45"/>
    <path opacity="0.25" d="M488.5 253.5H406.5C404.843 253.5 403.5 254.843 403.5 256.5C403.5 258.157 404.843 259.5 406.5 259.5H488.5C490.157 259.5 491.5 258.157 491.5 256.5C491.5 254.843 490.157 253.5 488.5 253.5Z" fill="#242A45"/>
    <path opacity="0.25" d="M488.5 273.5H406.5C404.843 273.5 403.5 274.843 403.5 276.5C403.5 278.157 404.843 279.5 406.5 279.5H488.5C490.157 279.5 491.5 278.157 491.5 276.5C491.5 274.843 490.157 273.5 488.5 273.5Z" fill="#242A45"/>
    <path opacity="0.25" d="M227.5 169.5H169.5C167.843 169.5 166.5 170.843 166.5 172.5C166.5 174.157 167.843 175.5 169.5 175.5H227.5C229.157 175.5 230.5 174.157 230.5 172.5C230.5 170.843 229.157 169.5 227.5 169.5Z" fill="#242A45"/>
    <path d="M135.5 237.5C144.337 237.5 151.5 230.337 151.5 221.5C151.5 212.663 144.337 205.5 135.5 205.5C126.663 205.5 119.5 212.663 119.5 221.5C119.5 230.337 126.663 237.5 135.5 237.5Z" fill="#6AC6D6"/>
    <path opacity="0.5" d="M283.5 211.5H169.5C167.843 211.5 166.5 212.843 166.5 214.5C166.5 216.157 167.843 217.5 169.5 217.5H283.5C285.157 217.5 286.5 216.157 286.5 214.5C286.5 212.843 285.157 211.5 283.5 211.5Z" fill="#242A45"/>
    <path opacity="0.25" d="M227.5 225.5H169.5C167.843 225.5 166.5 226.843 166.5 228.5C166.5 230.157 167.843 231.5 169.5 231.5H227.5C229.157 231.5 230.5 230.157 230.5 228.5C230.5 226.843 229.157 225.5 227.5 225.5Z" fill="#242A45"/>
    <path d="M135.5 293.5C144.337 293.5 151.5 286.337 151.5 277.5C151.5 268.663 144.337 261.5 135.5 261.5C126.663 261.5 119.5 268.663 119.5 277.5C119.5 286.337 126.663 293.5 135.5 293.5Z" fill="#A47ED4"/>
    <path opacity="0.5" d="M283.5 267.5H169.5C167.843 267.5 166.5 268.843 166.5 270.5C166.5 272.157 167.843 273.5 169.5 273.5H283.5C285.157 273.5 286.5 272.157 286.5 270.5C286.5 268.843 285.157 267.5 283.5 267.5Z" fill="#242A45"/>
    <path opacity="0.25" d="M227.5 281.5H169.5C167.843 281.5 166.5 282.843 166.5 284.5C166.5 286.157 167.843 287.5 169.5 287.5H227.5C229.157 287.5 230.5 286.157 230.5 284.5C230.5 282.843 229.157 281.5 227.5 281.5Z" fill="#242A45"/>
    <path d="M135.5 349.5C144.337 349.5 151.5 342.337 151.5 333.5C151.5 324.663 144.337 317.5 135.5 317.5C126.663 317.5 119.5 324.663 119.5 333.5C119.5 342.337 126.663 349.5 135.5 349.5Z" fill="#EC7878"/>
    <path opacity="0.5" d="M283.5 323.5H169.5C167.843 323.5 166.5 324.843 166.5 326.5C166.5 328.157 167.843 329.5 169.5 329.5H283.5C285.157 329.5 286.5 328.157 286.5 326.5C286.5 324.843 285.157 323.5 283.5 323.5Z" fill="#242A45"/>
    <path opacity="0.25" d="M227.5 337.5H169.5C167.843 337.5 166.5 338.843 166.5 340.5C166.5 342.157 167.843 343.5 169.5 343.5H227.5C229.157 343.5 230.5 342.157 230.5 340.5C230.5 338.843 229.157 337.5 227.5 337.5Z" fill="#242A45"/>
    </g>
    <defs>
    <filter id="filter0_d_614_469" x="0.1" y="0.1" width="598.03" height="405.665" filterUnits="userSpaceOnUse" color-interpolation-filters="sRGB">
    <feFlood flood-opacity="0" result="BackgroundImageFix"/>
    <feColorMatrix in="SourceAlpha" type="matrix" values="0 0 0 0 0 0 0 0 0 0 0 0 0 0 0 0 0 0 127 0" result="hardAlpha"/>
    <feOffset dy="5"/>
    <feGaussianBlur stdDeviation="5.95"/>
    <feColorMatrix type="matrix" values="0 0 0 0 0 0 0 0 0 0 0 0 0 0 0 0 0 0 0.5 0"/>
    <feBlend mode="normal" in2="BackgroundImageFix" result="effect1_dropShadow_614_469"/>
    <feBlend mode="normal" in="SourceGraphic" in2="effect1_dropShadow_614_469" result="shape"/>
    </filter>
    <linearGradient id="paint0_linear_614_469" x1="56868.2" y1="27377.2" x2="10946.9" y2="-3160.35" gradientUnits="userSpaceOnUse">
    <stop stop-color="#151515"/>
    <stop offset="1" stop-color="#3D3D3D"/>
    </linearGradient>
    </defs>
    </svg>
    