<svg xmlns="http://www.w3.org/2000/svg" width="20" height="20" viewBox="0 0 20 20" fill="none">
    <g clip-path="url(#clip0_614_543)">
      <path d="M10 20C15.5228 20 20 15.5228 20 10C20 4.47715 15.5228 0 10 0C4.47715 0 0 4.47715 0 10C0 15.5228 4.47715 20 10 20Z" fill="#FA5959"/>
      <path d="M11 6C11 5.44772 10.5523 5 10 5C9.44772 5 9 5.44772 9 6V11C9 11.5523 9.44772 12 10 12C10.5523 12 11 11.5523 11 11V6Z" fill="white"/>
      <path d="M11 14C11 13.4477 10.5523 13 10 13C9.44772 13 9 13.4477 9 14C9 14.5523 9.44772 15 10 15C10.5523 15 11 14.5523 11 14Z" fill="white"/>
    </g>
    <defs>
      <clipPath id="clip0_614_543">
        <rect width="20" height="20" fill="white"/>
      </clipPath>
    </defs>
  </svg>