<svg xmlns="http://www.w3.org/2000/svg" width="102" height="100" viewBox="0 0 102 100" fill="none">
    <g clip-path="url(#clip0_614_519)">
        <path
            d="M50.7676 0.00993738C50.7676 0.00993738 80.7776 -1.31506 96.6836 28.2589H48.2166C48.2166 28.2589 39.0626 27.9629 31.2596 38.8529C29.0096 43.4139 26.6096 48.1229 29.3096 57.3909C25.4096 50.9189 8.60156 22.2269 8.60156 22.2269C8.60156 22.2269 20.4566 1.18594 50.7676 0.00893738V0.00993738Z"
            fill="#E16B5A" />
        <path
            d="M95.122 75.0949C95.122 75.0949 81.284 101.238 47.21 99.9519C51.414 92.8199 71.45 58.7999 71.45 58.7999C71.45 58.7999 76.287 51.1739 70.575 39.1039C67.672 34.9119 58.875 30.5179 49.338 28.1759C57.008 28.1009 96.588 28.1809 96.588 28.1809C96.588 28.1809 109.241 48.7699 95.122 75.0949Z"
            fill="#FFD464" />
        <path
            d="M6.62776 75.294C6.62776 75.294 -9.54224 50.469 8.63176 22.178L32.8568 63.341C32.8568 63.341 37.1708 71.261 50.6888 72.445C55.8418 72.077 61.2028 71.763 68.0398 64.838C64.2698 71.387 47.3268 100 47.3268 100C47.3268 100 22.8178 100.448 6.62776 75.294Z"
            fill="#74B340" />
        <path
            d="M50.6455 73.062C63.3834 73.062 73.7095 62.9186 73.7095 50.406C73.7095 37.8934 63.3834 27.75 50.6455 27.75C37.9076 27.75 27.5815 37.8934 27.5815 50.406C27.5815 62.9186 37.9076 73.062 50.6455 73.062Z"
            fill="white" />
        <path
            d="M50.6377 68.375C60.7401 68.375 68.9297 60.33 68.9297 50.406C68.9297 40.482 60.7401 32.437 50.6377 32.437C40.5353 32.437 32.3457 40.482 32.3457 50.406C32.3457 60.33 40.5353 68.375 50.6377 68.375Z"
            fill="#2995CC" />
        <path
            d="M50.6426 32.4409C50.2786 32.4409 49.9186 32.4549 49.5606 32.4749C59.1586 33.0249 66.7696 40.8439 66.7696 50.4089C66.7696 59.9769 59.1586 67.7949 49.5596 68.3459C49.9196 68.3659 50.2796 68.3799 50.6426 68.3799C60.7436 68.3799 68.9346 60.3339 68.9346 50.4099C68.9346 40.4869 60.7446 32.4409 50.6426 32.4409Z"
            fill="#268CBF" />
    </g>
    <defs>
        <clipPath id="clip0_614_519">
            <rect width="102" height="100" fill="white" />
        </clipPath>
    </defs>
</svg>