<svg xmlns="http://www.w3.org/2000/svg" width="105" height="100" viewBox="0 0 105 100" fill="none">
    <g clip-path="url(#clip0_614_533)">
        <path
            d="M105 50C105 78.862 81.487 100 52.5 100C23.513 100 0 76.588 0 47.726C0 38.683 2.33 30.136 6.392 22.726C6.44092 22.5886 6.51944 22.4637 6.622 22.36C4.338 18.956 3.334 10.318 9.128 4.541C9.128 6.952 10.592 11.089 12.232 14.179C13.558 16.636 14.969 18.407 15.973 18.179C18.257 17.636 26.243 17.636 27.385 18.179C29.262 15.774 33.83 9.089 41.088 9.089C37.026 13.134 25.384 27.274 45.655 27.274H50.223L36.52 36.363C36.52 36.363 38.076 39.363 36.52 40.911C34.788 39.179 27.392 42.773 27.392 47.726C27.392 52.679 32.688 59.089 43.372 59.089C54.055 59.089 51.358 54.541 57.068 54.541C62.777 54.541 63.912 59.089 63.912 59.089C56.057 59.089 50.354 68.179 41.088 68.179C45.655 71.543 48.668 72.726 54.784 72.726C69.897 72.726 82.176 60.501 82.176 45.452C82.176 39.362 80.168 33.769 76.788 29.228C79.8828 31.525 82.4585 34.4487 84.347 37.8084C86.2355 41.1681 87.3944 44.8882 87.748 48.726C88.596 45.43 89.0257 42.0403 89.027 38.637C89.027 24.954 83.187 6.861 73.047 0C87.655 4.358 105 18.466 105 45.452V50Z"
            fill="#FF9800" />
    </g>
    <defs>
        <clipPath id="clip0_614_533">
            <rect width="105" height="100" fill="white" />
        </clipPath>
    </defs>
</svg>